<?xml version="1.0" encoding="utf-8"?>
<!-- Generated by Mocodo 4.3.2 -->
<svg width="1026" height="330" viewBox="0 0 1026 330" xmlns="http://www.w3.org/2000/svg">
<rect x="0" y="0" width="1026" height="330" fill="#f7f7f7" stroke="none" stroke-width="0"/>

<!-- Association APPARTENIR -->
<g>
	<line x1="55" y1="152" x2="55" y2="51" stroke="#4393c3" stroke-width="2"/>
	<line x1="209" y1="51" x2="55" y2="51" stroke="#4393c3" stroke-width="2"/>
	<g>
		<path d="M87 26 a14 14 90 0 1 14 14 V51 h-92 V40 a14 14 90 0 1 14 -14" fill="#92c5de" stroke="#92c5de" stroke-width="0"/>
		<path d="M101 51 v11 a14 14 90 0 1 -14 14 H23 a14 14 90 0 1 -14 -14 V51 H92" fill="#d1e5f0" stroke="#d1e5f0" stroke-width="0"/>
		<rect x="9" y="26" width="92" height="50" fill="none" rx="14" stroke="#4393c3" stroke-width="2"/>
		<line x1="9" y1="51" x2="101" y2="51" stroke="#4393c3" stroke-width="1"/>
		<text x="16" y="43.75" fill="#000000" font-family="Verdana" font-size="12">APPARTENIR</text>
	</g>
	<text x="60" y="102" fill="#b2182b" font-family="Verdana" font-size="12">0,N</text>
	<text x="116" y="68" fill="#b2182b" font-family="Verdana" font-size="12">0,1</text>
</g>

<!-- Association RECOLTER -->
<g>
	<line x1="366" y1="152" x2="366" y2="51" stroke="#4393c3" stroke-width="2"/>
	<line x1="209" y1="51" x2="366" y2="51" stroke="#4393c3" stroke-width="2"/>
	<g>
		<path d="M392 26 a14 14 90 0 1 14 14 V51 h-80 V40 a14 14 90 0 1 14 -14" fill="#92c5de" stroke="#92c5de" stroke-width="0"/>
		<path d="M406 51 v11 a14 14 90 0 1 -14 14 H340 a14 14 90 0 1 -14 -14 V51 H80" fill="#d1e5f0" stroke="#d1e5f0" stroke-width="0"/>
		<rect x="326" y="26" width="80" height="50" fill="none" rx="14" stroke="#4393c3" stroke-width="2"/>
		<line x1="326" y1="51" x2="406" y2="51" stroke="#4393c3" stroke-width="1"/>
		<text x="334" y="43.75" fill="#000000" font-family="Verdana" font-size="12">RECOLTER</text>
	</g>
	<text x="371" y="93" fill="#b2182b" font-family="Verdana" font-size="12">0,N</text>
	<text x="281" y="68" fill="#b2182b" font-family="Verdana" font-size="12">1,1</text>
</g>

<!-- Association EN_MAINTENANCE -->
<g>
	<line x1="814" y1="51" x2="632" y2="51" stroke="#4393c3" stroke-width="2"/>
	<line x1="632" y1="152" x2="632" y2="51" stroke="#4393c3" stroke-width="2"/>
	<g>
		<path d="M675 26 a14 14 90 0 1 14 14 V51 h-114 V40 a14 14 90 0 1 14 -14" fill="#92c5de" stroke="#92c5de" stroke-width="0"/>
		<path d="M689 51 v11 a14 14 90 0 1 -14 14 H589 a14 14 90 0 1 -14 -14 V51 H114" fill="#d1e5f0" stroke="#d1e5f0" stroke-width="0"/>
		<rect x="575" y="26" width="114" height="50" fill="none" rx="14" stroke="#4393c3" stroke-width="2"/>
		<line x1="575" y1="51" x2="689" y2="51" stroke="#4393c3" stroke-width="1"/>
		<text x="583" y="43.75" fill="#000000" font-family="Verdana" font-size="12">en_Maintenance</text>
	</g>
	<text x="719" y="68" fill="#b2182b" font-family="Verdana" font-size="12">1,1</text>
	<text x="637" y="93" fill="#b2182b" font-family="Verdana" font-size="12">0,N</text>
</g>

<!-- Association PARTICIPER_CAMPAGNE -->
<g>
	<line x1="366" y1="152" x2="209" y2="152" stroke="#4393c3" stroke-width="2"/>
	<line x1="209" y1="262" x2="209" y2="152" stroke="#4393c3" stroke-width="2"/>
	<g>
		<path d="M277 127 a14 14 90 0 1 14 14 V152 h-164 V141 a14 14 90 0 1 14 -14" fill="#92c5de" stroke="#92c5de" stroke-width="0"/>
		<path d="M291 152 v11 a14 14 90 0 1 -14 14 H141 a14 14 90 0 1 -14 -14 V152 H164" fill="#d1e5f0" stroke="#d1e5f0" stroke-width="0"/>
		<rect x="127" y="127" width="164" height="50" fill="none" rx="14" stroke="#4393c3" stroke-width="2"/>
		<line x1="127" y1="152" x2="291" y2="152" stroke="#4393c3" stroke-width="1"/>
		<text x="134" y="144.75" fill="#000000" font-family="Verdana" font-size="12">PARTICIPER_CAMPAGNE</text>
	</g>
	<text x="296" y="169" fill="#b2182b" font-family="Verdana" font-size="12">0,N</text>
	<text x="214" y="195" fill="#b2182b" font-family="Verdana" font-size="12">0,N</text>
</g>

<!-- Association UTILISER -->
<g>
	<line x1="632" y1="152" x2="492" y2="152" stroke="#4393c3" stroke-width="2"/>
	<line x1="366" y1="152" x2="492" y2="152" stroke="#4393c3" stroke-width="2"/>
	<g>
		<path d="M514 127 a14 14 90 0 1 14 14 V152 h-72 V141 a14 14 90 0 1 14 -14" fill="#92c5de" stroke="#92c5de" stroke-width="0"/>
		<path d="M528 152 v11 a14 14 90 0 1 -14 14 H470 a14 14 90 0 1 -14 -14 V152 H72" fill="#d1e5f0" stroke="#d1e5f0" stroke-width="0"/>
		<rect x="456" y="127" width="72" height="50" fill="none" rx="14" stroke="#4393c3" stroke-width="2"/>
		<line x1="456" y1="152" x2="528" y2="152" stroke="#4393c3" stroke-width="1"/>
		<text x="463" y="144.75" fill="#000000" font-family="Verdana" font-size="12">UTILISER</text>
	</g>
	<text x="533" y="169" fill="#b2182b" font-family="Verdana" font-size="12">0,N</text>
	<text x="414" y="169" fill="#b2182b" font-family="Verdana" font-size="12">1,1</text>
</g>

<!-- Association INCLURE_EQUIPEMENT -->
<g>
	<line x1="632" y1="152" x2="814" y2="152" stroke="#4393c3" stroke-width="2"/>
	<line x1="814" y1="262" x2="814" y2="152" stroke="#4393c3" stroke-width="2"/>
	<g>
		<path d="M878 127 a14 14 90 0 1 14 14 V152 h-156 V141 a14 14 90 0 1 14 -14" fill="#92c5de" stroke="#92c5de" stroke-width="0"/>
		<path d="M892 152 v11 a14 14 90 0 1 -14 14 H750 a14 14 90 0 1 -14 -14 V152 H156" fill="#d1e5f0" stroke="#d1e5f0" stroke-width="0"/>
		<rect x="736" y="127" width="156" height="50" fill="none" rx="14" stroke="#4393c3" stroke-width="2"/>
		<line x1="736" y1="152" x2="892" y2="152" stroke="#4393c3" stroke-width="1"/>
		<text x="743" y="144.75" fill="#000000" font-family="Verdana" font-size="12">INCLURE_EQUIPEMENT</text>
	</g>
	<text x="709" y="169" fill="#b2182b" font-family="Verdana" font-size="12">0,N</text>
	<text x="819" y="220" fill="#b2182b" font-family="Verdana" font-size="12">0,1</text>
</g>

<!-- Association POSSEDER -->
<g>
	<line x1="209" y1="262" x2="366" y2="262" stroke="#4393c3" stroke-width="2"/>
	<line x1="492" y1="262" x2="366" y2="262" stroke="#4393c3" stroke-width="2"/>
	<g>
		<path d="M393 237 a14 14 90 0 1 14 14 V262 h-82 V251 a14 14 90 0 1 14 -14" fill="#92c5de" stroke="#92c5de" stroke-width="0"/>
		<path d="M407 262 v11 a14 14 90 0 1 -14 14 H339 a14 14 90 0 1 -14 -14 V262 H82" fill="#d1e5f0" stroke="#d1e5f0" stroke-width="0"/>
		<rect x="325" y="237" width="82" height="50" fill="none" rx="14" stroke="#4393c3" stroke-width="2"/>
		<line x1="325" y1="262" x2="407" y2="262" stroke="#4393c3" stroke-width="1"/>
		<text x="333" y="254.75" fill="#000000" font-family="Verdana" font-size="12">POSSEDER</text>
	</g>
	<text x="256" y="279" fill="#b2182b" font-family="Verdana" font-size="12">0,N</text>
	<text x="412" y="279" fill="#b2182b" font-family="Verdana" font-size="12">0,N</text>
</g>

<!-- Association NECESSITER -->
<g>
	<line x1="814" y1="262" x2="632" y2="262" stroke="#4393c3" stroke-width="2"/>
	<line x1="492" y1="262" x2="632" y2="262" stroke="#4393c3" stroke-width="2"/>
	<g>
		<path d="M664 237 a14 14 90 0 1 14 14 V262 h-92 V251 a14 14 90 0 1 14 -14" fill="#92c5de" stroke="#92c5de" stroke-width="0"/>
		<path d="M678 262 v11 a14 14 90 0 1 -14 14 H600 a14 14 90 0 1 -14 -14 V262 H92" fill="#d1e5f0" stroke="#d1e5f0" stroke-width="0"/>
		<rect x="586" y="237" width="92" height="50" fill="none" rx="14" stroke="#4393c3" stroke-width="2"/>
		<line x1="586" y1="262" x2="678" y2="262" stroke="#4393c3" stroke-width="1"/>
		<text x="593" y="254.75" fill="#000000" font-family="Verdana" font-size="12">NECESSITER</text>
	</g>
	<text x="732" y="279" fill="#b2182b" font-family="Verdana" font-size="12">0,N</text>
	<text x="550" y="279" fill="#b2182b" font-family="Verdana" font-size="12">0,N</text>
</g>

<!-- Entity ECHANTILLON -->
<g>
	<g>
		<rect x="142" y="9" width="134" height="25" fill="#f4a582" stroke="none" stroke-width="0" opacity="1"/>
		<rect x="142" y="34" width="134" height="59" fill="#fddbc7" stroke="none" stroke-width="0" opacity="1"/>
		<rect x="142" y="9" width="134" height="84" fill="none" stroke="#d6604d" stroke-width="2" opacity="1"/>
		<line x1="142" y1="34" x2="276" y2="34" stroke="#d6604d" stroke-width="1"/>
	</g>
	<text x="165" y="26.75" fill="#000000" font-family="Verdana" font-size="12">ECHANTILLON</text>
	<text x="147" y="51.8" fill="#000000" font-family="Verdana" font-size="12">idEchantillon</text>
	<line x1="147" y1="54" x2="224" y2="54" stroke="#000000" stroke-width="1"/>
	<text x="147" y="68.8" fill="#000000" font-family="Verdana" font-size="12">fichierSequenceADN</text>
	<text x="147" y="85.8" fill="#000000" font-family="Verdana" font-size="12">commentaire</text>
</g>

<!-- Entity MAINTENANCE -->
<g>
	<g>
		<rect x="745" y="17" width="138" height="25" fill="#f4a582" stroke="none" stroke-width="0" opacity="1"/>
		<rect x="745" y="42" width="138" height="43" fill="#fddbc7" stroke="none" stroke-width="0" opacity="1"/>
		<rect x="745" y="17" width="138" height="68" fill="none" stroke="#d6604d" stroke-width="2" opacity="1"/>
		<line x1="745" y1="42" x2="883" y2="42" stroke="#d6604d" stroke-width="1"/>
	</g>
	<text x="769" y="34.75" fill="#000000" font-family="Verdana" font-size="12">MAINTENANCE</text>
	<text x="750" y="59.8" fill="#000000" font-family="Verdana" font-size="12">dateMaintenance</text>
	<line x1="750" y1="62" x2="854" y2="62" stroke="#000000" stroke-width="1"/>
	<text x="750" y="76.8" fill="#000000" font-family="Verdana" font-size="12">maintenanceTermine</text>
	<line x1="750" y1="79" x2="878" y2="79" stroke="#000000" stroke-width="1"/>
</g>

<!-- Entity BUDGET -->
<g>
	<g>
		<rect x="915" y="17" width="102" height="25" fill="#f4a582" stroke="none" stroke-width="0" opacity="1"/>
		<rect x="915" y="42" width="102" height="43" fill="#fddbc7" stroke="none" stroke-width="0" opacity="1"/>
		<rect x="915" y="17" width="102" height="68" fill="none" stroke="#d6604d" stroke-width="2" opacity="1"/>
		<line x1="915" y1="42" x2="1017" y2="42" stroke="#d6604d" stroke-width="1"/>
	</g>
	<text x="940" y="34.75" fill="#000000" font-family="Verdana" font-size="12">BUDGET</text>
	<text x="920" y="59.8" fill="#000000" font-family="Verdana" font-size="12">dateMoisAnnee</text>
	<line x1="920" y1="62" x2="1012" y2="62" stroke="#000000" stroke-width="1"/>
	<text x="920" y="76.8" fill="#000000" font-family="Verdana" font-size="12">budget</text>
</g>

<!-- Entity ESPECE -->
<g>
	<g>
		<rect x="15" y="110" width="80" height="25" fill="#f4a582" stroke="none" stroke-width="0" opacity="1"/>
		<rect x="15" y="135" width="80" height="59" fill="#fddbc7" stroke="none" stroke-width="0" opacity="1"/>
		<rect x="15" y="110" width="80" height="84" fill="none" stroke="#d6604d" stroke-width="2" opacity="1"/>
		<line x1="15" y1="135" x2="95" y2="135" stroke="#d6604d" stroke-width="1"/>
	</g>
	<text x="31" y="127.75" fill="#000000" font-family="Verdana" font-size="12">ESPECE</text>
	<text x="20" y="152.8" fill="#000000" font-family="Verdana" font-size="12">idEspece</text>
	<line x1="20" y1="155" x2="74" y2="155" stroke="#000000" stroke-width="1"/>
	<text x="20" y="169.8" fill="#000000" font-family="Verdana" font-size="12">nomEspece</text>
	<text x="20" y="186.8" fill="#000000" font-family="Verdana" font-size="12">genome</text>
</g>

<!-- Entity CAMPAGNE -->
<g>
	<g>
		<rect x="323" y="101" width="86" height="25" fill="#f4a582" stroke="none" stroke-width="0" opacity="1"/>
		<rect x="323" y="126" width="86" height="77" fill="#fddbc7" stroke="none" stroke-width="0" opacity="1"/>
		<rect x="323" y="101" width="86" height="102" fill="none" stroke="#d6604d" stroke-width="2" opacity="1"/>
		<line x1="323" y1="126" x2="409" y2="126" stroke="#d6604d" stroke-width="1"/>
	</g>
	<text x="332" y="118.75" fill="#000000" font-family="Verdana" font-size="12">CAMPAGNE</text>
	<text x="328" y="143.8" fill="#000000" font-family="Verdana" font-size="12">idCampagne</text>
	<line x1="328" y1="146" x2="404" y2="146" stroke="#000000" stroke-width="1"/>
	<text x="328" y="160.8" fill="#000000" font-family="Verdana" font-size="12">dateDebut</text>
	<text x="328" y="177.8" fill="#000000" font-family="Verdana" font-size="12">dureeJour</text>
	<text x="328" y="194.8" fill="#000000" font-family="Verdana" font-size="12">lieu</text>
</g>

<!-- Entity PLATEFORME -->
<g>
	<g>
		<rect x="560" y="101" width="144" height="25" fill="#f4a582" stroke="none" stroke-width="0" opacity="1"/>
		<rect x="560" y="126" width="144" height="77" fill="#fddbc7" stroke="none" stroke-width="0" opacity="1"/>
		<rect x="560" y="101" width="144" height="102" fill="none" stroke="#d6604d" stroke-width="2" opacity="1"/>
		<line x1="560" y1="126" x2="704" y2="126" stroke="#d6604d" stroke-width="1"/>
	</g>
	<text x="592" y="118.75" fill="#000000" font-family="Verdana" font-size="12">PLATEFORME</text>
	<text x="565" y="143.8" fill="#000000" font-family="Verdana" font-size="12">nomPlateforme</text>
	<line x1="565" y1="146" x2="658" y2="146" stroke="#000000" stroke-width="1"/>
	<text x="565" y="160.8" fill="#000000" font-family="Verdana" font-size="12">nbPersonnesRequises</text>
	<text x="565" y="177.8" fill="#000000" font-family="Verdana" font-size="12">coutJournalier</text>
	<text x="565" y="194.8" fill="#000000" font-family="Verdana" font-size="12">intervalleMaintenance</text>
</g>

<!-- Entity PERSONNEL -->
<g>
	<g>
		<rect x="167" y="203" width="84" height="25" fill="#f4a582" stroke="none" stroke-width="0" opacity="1"/>
		<rect x="167" y="228" width="84" height="93" fill="#fddbc7" stroke="none" stroke-width="0" opacity="1"/>
		<rect x="167" y="203" width="84" height="118" fill="none" stroke="#d6604d" stroke-width="2" opacity="1"/>
		<line x1="167" y1="228" x2="251" y2="228" stroke="#d6604d" stroke-width="1"/>
	</g>
	<text x="172" y="220.75" fill="#000000" font-family="Verdana" font-size="12">PERSONNEL</text>
	<text x="172" y="245.8" fill="#000000" font-family="Verdana" font-size="12">idPersonnel</text>
	<line x1="172" y1="248" x2="242" y2="248" stroke="#000000" stroke-width="1"/>
	<text x="172" y="262.8" fill="#000000" font-family="Verdana" font-size="12">nom</text>
	<text x="172" y="279.8" fill="#000000" font-family="Verdana" font-size="12">prenom</text>
	<text x="172" y="296.8" fill="#000000" font-family="Verdana" font-size="12">mdp</text>
	<text x="172" y="313.8" fill="#000000" font-family="Verdana" font-size="12">role</text>
</g>

<!-- Entity HABILITATION -->
<g>
	<g>
		<rect x="439" y="228" width="106" height="25" fill="#f4a582" stroke="none" stroke-width="0" opacity="1"/>
		<rect x="439" y="253" width="106" height="43" fill="#fddbc7" stroke="none" stroke-width="0" opacity="1"/>
		<rect x="439" y="228" width="106" height="68" fill="none" stroke="#d6604d" stroke-width="2" opacity="1"/>
		<line x1="439" y1="253" x2="545" y2="253" stroke="#d6604d" stroke-width="1"/>
	</g>
	<text x="447" y="245.75" fill="#000000" font-family="Verdana" font-size="12">HABILITATION</text>
	<text x="444" y="270.8" fill="#000000" font-family="Verdana" font-size="12">idHabilitation</text>
	<line x1="444" y1="273" x2="524" y2="273" stroke="#000000" stroke-width="1"/>
	<text x="444" y="287.8" fill="#000000" font-family="Verdana" font-size="12">nomHabilitation</text>
</g>

<!-- Entity EQUIPEMENT -->
<g>
	<g>
		<rect x="759" y="228" width="110" height="25" fill="#f4a582" stroke="none" stroke-width="0" opacity="1"/>
		<rect x="759" y="253" width="110" height="43" fill="#fddbc7" stroke="none" stroke-width="0" opacity="1"/>
		<rect x="759" y="228" width="110" height="68" fill="none" stroke="#d6604d" stroke-width="2" opacity="1"/>
		<line x1="759" y1="253" x2="869" y2="253" stroke="#d6604d" stroke-width="1"/>
	</g>
	<text x="774" y="245.75" fill="#000000" font-family="Verdana" font-size="12">EQUIPEMENT</text>
	<text x="764" y="270.8" fill="#000000" font-family="Verdana" font-size="12">idEquipement</text>
	<line x1="764" y1="273" x2="848" y2="273" stroke="#000000" stroke-width="1"/>
	<text x="764" y="287.8" fill="#000000" font-family="Verdana" font-size="12">nomEquipement</text>
</g>
</svg>