<?xml version="1.0" encoding="utf-8"?>
<!-- Generated by Mocodo 4.3.2 -->
<svg width="692" height="414" viewBox="0 0 692 414" xmlns="http://www.w3.org/2000/svg">
<rect x="0" y="0" width="692" height="414" fill="#f7f7f7" stroke="none" stroke-width="0"/>

<!-- Association POSSEDER -->
<g>
	<line x1="91" y1="152" x2="91" y2="43" stroke="#4393c3" stroke-width="2"/>
	<line x1="248" y1="43" x2="91" y2="43" stroke="#4393c3" stroke-width="2"/>
	<g>
		<path d="M118 18 a14 14 90 0 1 14 14 V43 h-82 V32 a14 14 90 0 1 14 -14" fill="#92c5de" stroke="#92c5de" stroke-width="0"/>
		<path d="M132 43 v11 a14 14 90 0 1 -14 14 H64 a14 14 90 0 1 -14 -14 V43 H82" fill="#d1e5f0" stroke="#d1e5f0" stroke-width="0"/>
		<rect x="50" y="18" width="82" height="50" fill="none" rx="14" stroke="#4393c3" stroke-width="2"/>
		<line x1="50" y1="43" x2="132" y2="43" stroke="#4393c3" stroke-width="1"/>
		<text x="58" y="35.75" fill="#000000" font-family="Verdana" font-size="12">POSSEDER</text>
	</g>
	<text x="96" y="85" fill="#b2182b" font-family="Verdana" font-size="12">0,N</text>
	<text x="168" y="60" fill="#b2182b" font-family="Verdana" font-size="12">0,N</text>
</g>

<!-- Association NECESSITER -->
<g>
	<line x1="605" y1="43" x2="423" y2="43" stroke="#4393c3" stroke-width="2"/>
	<line x1="248" y1="43" x2="423" y2="43" stroke="#4393c3" stroke-width="2"/>
	<g>
		<path d="M455 18 a14 14 90 0 1 14 14 V43 h-92 V32 a14 14 90 0 1 14 -14" fill="#92c5de" stroke="#92c5de" stroke-width="0"/>
		<path d="M469 43 v11 a14 14 90 0 1 -14 14 H391 a14 14 90 0 1 -14 -14 V43 H92" fill="#d1e5f0" stroke="#d1e5f0" stroke-width="0"/>
		<rect x="377" y="18" width="92" height="50" fill="none" rx="14" stroke="#4393c3" stroke-width="2"/>
		<line x1="377" y1="43" x2="469" y2="43" stroke="#4393c3" stroke-width="1"/>
		<text x="384" y="35.75" fill="#000000" font-family="Verdana" font-size="12">NECESSITER</text>
	</g>
	<text x="523" y="60" fill="#b2182b" font-family="Verdana" font-size="12">0,N</text>
	<text x="306" y="60" fill="#b2182b" font-family="Verdana" font-size="12">0,N</text>
</g>

<!-- Association MAINTENANCE -->
<g>
	<line x1="91" y1="152" x2="248" y2="152" stroke="#4393c3" stroke-width="2"/>
	<line x1="423" y1="152" x2="248" y2="152" stroke="#4393c3" stroke-width="2"/>
	<g>
		<path d="M305 118 a14 14 90 0 1 14 14 V143 h-142 V132 a14 14 90 0 1 14 -14" fill="#92c5de" stroke="#92c5de" stroke-width="0"/>
		<path d="M319 143 v29 a14 14 90 0 1 -14 14 H191 a14 14 90 0 1 -14 -14 V143 H142" fill="#d1e5f0" stroke="#d1e5f0" stroke-width="0"/>
		<rect x="177" y="118" width="142" height="68" fill="none" rx="14" stroke="#4393c3" stroke-width="2"/>
		<line x1="177" y1="143" x2="319" y2="143" stroke="#4393c3" stroke-width="1"/>
		<text x="203" y="135.75" fill="#000000" font-family="Verdana" font-size="12">MAINTENANCE</text>
		<text x="184" y="160.8" fill="#000000" font-family="Verdana" font-size="12">dateMaintenance</text>
		<text x="184" y="177.8" fill="#000000" font-family="Verdana" font-size="12">maintenanceTermine</text>
	</g>
	<text x="138" y="169" fill="#b2182b" font-family="Verdana" font-size="12">0,N</text>
	<text x="324" y="169" fill="#b2182b" font-family="Verdana" font-size="12">0,N</text>
</g>

<!-- Association INCLURE_EQUIPEMENT -->
<g>
	<line x1="423" y1="152" x2="605" y2="152" stroke="#4393c3" stroke-width="2"/>
	<line x1="605" y1="43" x2="605" y2="152" stroke="#4393c3" stroke-width="2"/>
	<g>
		<path d="M669 127 a14 14 90 0 1 14 14 V152 h-156 V141 a14 14 90 0 1 14 -14" fill="#92c5de" stroke="#92c5de" stroke-width="0"/>
		<path d="M683 152 v11 a14 14 90 0 1 -14 14 H541 a14 14 90 0 1 -14 -14 V152 H156" fill="#d1e5f0" stroke="#d1e5f0" stroke-width="0"/>
		<rect x="527" y="127" width="156" height="50" fill="none" rx="14" stroke="#4393c3" stroke-width="2"/>
		<line x1="527" y1="152" x2="683" y2="152" stroke="#4393c3" stroke-width="1"/>
		<text x="534" y="144.75" fill="#000000" font-family="Verdana" font-size="12">INCLURE_EQUIPEMENT</text>
	</g>
	<text x="500" y="169" fill="#b2182b" font-family="Verdana" font-size="12">0,N</text>
	<text x="610" y="94" fill="#b2182b" font-family="Verdana" font-size="12">0,1</text>
</g>

<!-- Association PARTICIPER_CAMPAGNE -->
<g>
	<line x1="248" y1="262" x2="91" y2="262" stroke="#4393c3" stroke-width="2"/>
	<line x1="91" y1="152" x2="91" y2="262" stroke="#4393c3" stroke-width="2"/>
	<g>
		<path d="M159 237 a14 14 90 0 1 14 14 V262 h-164 V251 a14 14 90 0 1 14 -14" fill="#92c5de" stroke="#92c5de" stroke-width="0"/>
		<path d="M173 262 v11 a14 14 90 0 1 -14 14 H23 a14 14 90 0 1 -14 -14 V262 H164" fill="#d1e5f0" stroke="#d1e5f0" stroke-width="0"/>
		<rect x="9" y="237" width="164" height="50" fill="none" rx="14" stroke="#4393c3" stroke-width="2"/>
		<line x1="9" y1="262" x2="173" y2="262" stroke="#4393c3" stroke-width="1"/>
		<text x="16" y="254.75" fill="#000000" font-family="Verdana" font-size="12">PARTICIPER_CAMPAGNE</text>
	</g>
	<text x="178" y="279" fill="#b2182b" font-family="Verdana" font-size="12">0,N</text>
	<text x="96" y="228" fill="#b2182b" font-family="Verdana" font-size="12">0,N</text>
</g>

<!-- Association UTILISER -->
<g>
	<line x1="423" y1="152" x2="423" y2="262" stroke="#4393c3" stroke-width="2"/>
	<line x1="248" y1="262" x2="423" y2="262" stroke="#4393c3" stroke-width="2"/>
	<g>
		<path d="M445 237 a14 14 90 0 1 14 14 V262 h-72 V251 a14 14 90 0 1 14 -14" fill="#92c5de" stroke="#92c5de" stroke-width="0"/>
		<path d="M459 262 v11 a14 14 90 0 1 -14 14 H401 a14 14 90 0 1 -14 -14 V262 H72" fill="#d1e5f0" stroke="#d1e5f0" stroke-width="0"/>
		<rect x="387" y="237" width="72" height="50" fill="none" rx="14" stroke="#4393c3" stroke-width="2"/>
		<line x1="387" y1="262" x2="459" y2="262" stroke="#4393c3" stroke-width="1"/>
		<text x="394" y="254.75" fill="#000000" font-family="Verdana" font-size="12">UTILISER</text>
	</g>
	<text x="428" y="220" fill="#b2182b" font-family="Verdana" font-size="12">0,N</text>
	<text x="296" y="279" fill="#b2182b" font-family="Verdana" font-size="12">1,1</text>
</g>

<!-- Association RECOLTER -->
<g>
	<line x1="248" y1="262" x2="248" y2="363" stroke="#4393c3" stroke-width="2"/>
	<line x1="423" y1="363" x2="248" y2="363" stroke="#4393c3" stroke-width="2"/>
	<g>
		<path d="M274 338 a14 14 90 0 1 14 14 V363 h-80 V352 a14 14 90 0 1 14 -14" fill="#92c5de" stroke="#92c5de" stroke-width="0"/>
		<path d="M288 363 v11 a14 14 90 0 1 -14 14 H222 a14 14 90 0 1 -14 -14 V363 H80" fill="#d1e5f0" stroke="#d1e5f0" stroke-width="0"/>
		<rect x="208" y="338" width="80" height="50" fill="none" rx="14" stroke="#4393c3" stroke-width="2"/>
		<line x1="208" y1="363" x2="288" y2="363" stroke="#4393c3" stroke-width="1"/>
		<text x="216" y="355.75" fill="#000000" font-family="Verdana" font-size="12">RECOLTER</text>
	</g>
	<text x="253" y="330" fill="#b2182b" font-family="Verdana" font-size="12">0,N</text>
	<text x="330" y="380" fill="#b2182b" font-family="Verdana" font-size="12">1,1</text>
</g>

<!-- Association APPARTENIR -->
<g>
	<line x1="605" y1="262" x2="605" y2="363" stroke="#4393c3" stroke-width="2"/>
	<line x1="423" y1="363" x2="605" y2="363" stroke="#4393c3" stroke-width="2"/>
	<g>
		<path d="M637 338 a14 14 90 0 1 14 14 V363 h-92 V352 a14 14 90 0 1 14 -14" fill="#92c5de" stroke="#92c5de" stroke-width="0"/>
		<path d="M651 363 v11 a14 14 90 0 1 -14 14 H573 a14 14 90 0 1 -14 -14 V363 H92" fill="#d1e5f0" stroke="#d1e5f0" stroke-width="0"/>
		<rect x="559" y="338" width="92" height="50" fill="none" rx="14" stroke="#4393c3" stroke-width="2"/>
		<line x1="559" y1="363" x2="651" y2="363" stroke="#4393c3" stroke-width="1"/>
		<text x="566" y="355.75" fill="#000000" font-family="Verdana" font-size="12">APPARTENIR</text>
	</g>
	<text x="610" y="321" fill="#b2182b" font-family="Verdana" font-size="12">0,N</text>
	<text x="495" y="380" fill="#b2182b" font-family="Verdana" font-size="12">0,1</text>
</g>

<!-- Entity HABILITATION -->
<g>
	<g>
		<rect x="195" y="9" width="106" height="25" fill="#f4a582" stroke="none" stroke-width="0" opacity="1"/>
		<rect x="195" y="34" width="106" height="43" fill="#fddbc7" stroke="none" stroke-width="0" opacity="1"/>
		<rect x="195" y="9" width="106" height="68" fill="none" stroke="#d6604d" stroke-width="2" opacity="1"/>
		<line x1="195" y1="34" x2="301" y2="34" stroke="#d6604d" stroke-width="1"/>
	</g>
	<text x="203" y="26.75" fill="#000000" font-family="Verdana" font-size="12">HABILITATION</text>
	<text x="200" y="51.8" fill="#000000" font-family="Verdana" font-size="12">idHabilitation</text>
	<line x1="200" y1="54" x2="280" y2="54" stroke="#000000" stroke-width="1"/>
	<text x="200" y="68.8" fill="#000000" font-family="Verdana" font-size="12">nomHabilitation</text>
</g>

<!-- Entity EQUIPEMENT -->
<g>
	<g>
		<rect x="550" y="9" width="110" height="25" fill="#f4a582" stroke="none" stroke-width="0" opacity="1"/>
		<rect x="550" y="34" width="110" height="43" fill="#fddbc7" stroke="none" stroke-width="0" opacity="1"/>
		<rect x="550" y="9" width="110" height="68" fill="none" stroke="#d6604d" stroke-width="2" opacity="1"/>
		<line x1="550" y1="34" x2="660" y2="34" stroke="#d6604d" stroke-width="1"/>
	</g>
	<text x="565" y="26.75" fill="#000000" font-family="Verdana" font-size="12">EQUIPEMENT</text>
	<text x="555" y="51.8" fill="#000000" font-family="Verdana" font-size="12">idEquipement</text>
	<line x1="555" y1="54" x2="639" y2="54" stroke="#000000" stroke-width="1"/>
	<text x="555" y="68.8" fill="#000000" font-family="Verdana" font-size="12">nomEquipement</text>
</g>

<!-- Entity PERSONNEL -->
<g>
	<g>
		<rect x="49" y="93" width="84" height="25" fill="#f4a582" stroke="none" stroke-width="0" opacity="1"/>
		<rect x="49" y="118" width="84" height="93" fill="#fddbc7" stroke="none" stroke-width="0" opacity="1"/>
		<rect x="49" y="93" width="84" height="118" fill="none" stroke="#d6604d" stroke-width="2" opacity="1"/>
		<line x1="49" y1="118" x2="133" y2="118" stroke="#d6604d" stroke-width="1"/>
	</g>
	<text x="54" y="110.75" fill="#000000" font-family="Verdana" font-size="12">PERSONNEL</text>
	<text x="54" y="135.8" fill="#000000" font-family="Verdana" font-size="12">idPersonnel</text>
	<line x1="54" y1="138" x2="124" y2="138" stroke="#000000" stroke-width="1"/>
	<text x="54" y="152.8" fill="#000000" font-family="Verdana" font-size="12">nom</text>
	<text x="54" y="169.8" fill="#000000" font-family="Verdana" font-size="12">prenom</text>
	<text x="54" y="186.8" fill="#000000" font-family="Verdana" font-size="12">mdp</text>
	<text x="54" y="203.8" fill="#000000" font-family="Verdana" font-size="12">role</text>
</g>

<!-- Entity PLATEFORME -->
<g>
	<g>
		<rect x="351" y="101" width="144" height="25" fill="#f4a582" stroke="none" stroke-width="0" opacity="1"/>
		<rect x="351" y="126" width="144" height="77" fill="#fddbc7" stroke="none" stroke-width="0" opacity="1"/>
		<rect x="351" y="101" width="144" height="102" fill="none" stroke="#d6604d" stroke-width="2" opacity="1"/>
		<line x1="351" y1="126" x2="495" y2="126" stroke="#d6604d" stroke-width="1"/>
	</g>
	<text x="383" y="118.75" fill="#000000" font-family="Verdana" font-size="12">PLATEFORME</text>
	<text x="356" y="143.8" fill="#000000" font-family="Verdana" font-size="12">nomPlateforme</text>
	<line x1="356" y1="146" x2="449" y2="146" stroke="#000000" stroke-width="1"/>
	<text x="356" y="160.8" fill="#000000" font-family="Verdana" font-size="12">nbPersonnesRequises</text>
	<text x="356" y="177.8" fill="#000000" font-family="Verdana" font-size="12">coutJournalier</text>
	<text x="356" y="194.8" fill="#000000" font-family="Verdana" font-size="12">intervalleMaintenance</text>
</g>

<!-- Entity CAMPAGNE -->
<g>
	<g>
		<rect x="205" y="211" width="86" height="25" fill="#f4a582" stroke="none" stroke-width="0" opacity="1"/>
		<rect x="205" y="236" width="86" height="77" fill="#fddbc7" stroke="none" stroke-width="0" opacity="1"/>
		<rect x="205" y="211" width="86" height="102" fill="none" stroke="#d6604d" stroke-width="2" opacity="1"/>
		<line x1="205" y1="236" x2="291" y2="236" stroke="#d6604d" stroke-width="1"/>
	</g>
	<text x="214" y="228.75" fill="#000000" font-family="Verdana" font-size="12">CAMPAGNE</text>
	<text x="210" y="253.8" fill="#000000" font-family="Verdana" font-size="12">idCampagne</text>
	<line x1="210" y1="256" x2="286" y2="256" stroke="#000000" stroke-width="1"/>
	<text x="210" y="270.8" fill="#000000" font-family="Verdana" font-size="12">dateDebut</text>
	<text x="210" y="287.8" fill="#000000" font-family="Verdana" font-size="12">dureeJour</text>
	<text x="210" y="304.8" fill="#000000" font-family="Verdana" font-size="12">lieu</text>
</g>

<!-- Entity ESPECE -->
<g>
	<g>
		<rect x="565" y="220" width="80" height="25" fill="#f4a582" stroke="none" stroke-width="0" opacity="1"/>
		<rect x="565" y="245" width="80" height="59" fill="#fddbc7" stroke="none" stroke-width="0" opacity="1"/>
		<rect x="565" y="220" width="80" height="84" fill="none" stroke="#d6604d" stroke-width="2" opacity="1"/>
		<line x1="565" y1="245" x2="645" y2="245" stroke="#d6604d" stroke-width="1"/>
	</g>
	<text x="581" y="237.75" fill="#000000" font-family="Verdana" font-size="12">ESPECE</text>
	<text x="570" y="262.8" fill="#000000" font-family="Verdana" font-size="12">idEspece</text>
	<line x1="570" y1="265" x2="624" y2="265" stroke="#000000" stroke-width="1"/>
	<text x="570" y="279.8" fill="#000000" font-family="Verdana" font-size="12">nomEspece</text>
	<text x="570" y="296.8" fill="#000000" font-family="Verdana" font-size="12">genome</text>
</g>

<!-- Entity BUDGET -->
<g>
	<g>
		<rect x="40" y="329" width="102" height="25" fill="#f4a582" stroke="none" stroke-width="0" opacity="1"/>
		<rect x="40" y="354" width="102" height="43" fill="#fddbc7" stroke="none" stroke-width="0" opacity="1"/>
		<rect x="40" y="329" width="102" height="68" fill="none" stroke="#d6604d" stroke-width="2" opacity="1"/>
		<line x1="40" y1="354" x2="142" y2="354" stroke="#d6604d" stroke-width="1"/>
	</g>
	<text x="65" y="346.75" fill="#000000" font-family="Verdana" font-size="12">BUDGET</text>
	<text x="45" y="371.8" fill="#000000" font-family="Verdana" font-size="12">dateMoisAnnee</text>
	<line x1="45" y1="374" x2="137" y2="374" stroke="#000000" stroke-width="1"/>
	<text x="45" y="388.8" fill="#000000" font-family="Verdana" font-size="12">budget</text>
	<line x1="45" y1="391" x2="88" y2="391" stroke="#000000" stroke-width="1"/>
</g>

<!-- Entity ECHANTILLON -->
<g>
	<g>
		<rect x="356" y="321" width="134" height="25" fill="#f4a582" stroke="none" stroke-width="0" opacity="1"/>
		<rect x="356" y="346" width="134" height="59" fill="#fddbc7" stroke="none" stroke-width="0" opacity="1"/>
		<rect x="356" y="321" width="134" height="84" fill="none" stroke="#d6604d" stroke-width="2" opacity="1"/>
		<line x1="356" y1="346" x2="490" y2="346" stroke="#d6604d" stroke-width="1"/>
	</g>
	<text x="379" y="338.75" fill="#000000" font-family="Verdana" font-size="12">ECHANTILLON</text>
	<text x="361" y="363.8" fill="#000000" font-family="Verdana" font-size="12">idEchantillon</text>
	<line x1="361" y1="366" x2="438" y2="366" stroke="#000000" stroke-width="1"/>
	<text x="361" y="380.8" fill="#000000" font-family="Verdana" font-size="12">fichierSequenceADN</text>
	<text x="361" y="397.8" fill="#000000" font-family="Verdana" font-size="12">commentaire</text>
</g>
</svg>